<svg width="29" height="21" viewBox="0 0 29 21" fill="none" xmlns="http://www.w3.org/2000/svg">
<path fill-rule="evenodd" clip-rule="evenodd" d="M25.4209 1.34513C26.6073 1.66465 27.5428 2.59996 27.8621 3.78652C28.4555 5.95383 28.4327 10.4715 28.4327 10.4715C28.4327 10.4715 28.4327 14.966 27.8623 17.1336C27.5428 18.3199 26.6075 19.2554 25.4209 19.5747C23.2534 20.1453 14.5835 20.1453 14.5835 20.1453C14.5835 20.1453 5.93626 20.1453 3.74612 19.5521C2.55956 19.2326 1.62425 18.2971 1.30473 17.1107C0.734375 14.966 0.734375 10.4486 0.734375 10.4486C0.734375 10.4486 0.734375 5.95383 1.30473 3.78652C1.62404 2.60017 2.58238 1.64183 3.74591 1.32252C5.91343 0.751953 14.5833 0.751953 14.5833 0.751953C14.5833 0.751953 23.2534 0.751953 25.4209 1.34513ZM19.0326 10.4487L11.8229 14.6011V6.29619L19.0326 10.4487Z" fill="#454A6D"/>
</svg>
